<svg width="45" height="41" viewBox="0 0 45 41" fill="none" xmlns="http://www.w3.org/2000/svg">
<rect x="0.922852" y="0.885254" width="43.8299" height="39.7208" rx="8.93034" fill="#323142"/>
<mask id="path-2-inside-1_1_16653" fill="white">
<path d="M29.8003 21.9628H23.4608V28.3916H20.9309V21.9628H14.6211V19.671H20.9309V13.2124H23.4608V19.671H29.8003V21.9628Z"/>
</mask>
<path d="M29.8003 21.9628H23.4608V28.3916H20.9309V21.9628H14.6211V19.671H20.9309V13.2124H23.4608V19.671H29.8003V21.9628Z" fill="black"/>
<path d="M29.8003 21.9628V26.0718H33.9094V21.9628H29.8003ZM23.4608 21.9628V17.8537H19.3517V21.9628H23.4608ZM23.4608 28.3916V32.5007H27.5698V28.3916H23.4608ZM20.9309 28.3916H16.8218V32.5007H20.9309V28.3916ZM20.9309 21.9628H25.0399V17.8537H20.9309V21.9628ZM14.6211 21.9628H10.512V26.0718H14.6211V21.9628ZM14.6211 19.671V15.562H10.512V19.671H14.6211ZM20.9309 19.671V23.7801H25.0399V19.671H20.9309ZM20.9309 13.2124V9.10335H16.8218V13.2124H20.9309ZM23.4608 13.2124H27.5698V9.10335H23.4608V13.2124ZM23.4608 19.671H19.3517V23.7801H23.4608V19.671ZM29.8003 19.671H33.9094V15.562H29.8003V19.671ZM29.8003 17.8537H23.4608V26.0718H29.8003V17.8537ZM19.3517 21.9628V28.3916H27.5698V21.9628H19.3517ZM23.4608 24.2826H20.9309V32.5007H23.4608V24.2826ZM25.0399 28.3916V21.9628H16.8218V28.3916H25.0399ZM20.9309 17.8537H14.6211V26.0718H20.9309V17.8537ZM18.7301 21.9628V19.671H10.512V21.9628H18.7301ZM14.6211 23.7801H20.9309V15.562H14.6211V23.7801ZM25.0399 19.671V13.2124H16.8218V19.671H25.0399ZM20.9309 17.3215H23.4608V9.10335H20.9309V17.3215ZM19.3517 13.2124V19.671H27.5698V13.2124H19.3517ZM23.4608 23.7801H29.8003V15.562H23.4608V23.7801ZM25.6913 19.671V21.9628H33.9094V19.671H25.6913Z" fill="white" mask="url(#path-2-inside-1_1_16653)"/>
</svg>
