<svg width="24" height="24" viewBox="0 0 24 24" fill="none" xmlns="http://www.w3.org/2000/svg">
<path d="M14.3333 19.117C15.8567 19.9509 17.1965 18.9403 16.9052 17.1716L16.382 13.9959L18.5981 11.7468C19.8306 10.496 19.3214 8.85704 17.6157 8.59899L14.5532 8.13566L13.1903 5.2606C12.4269 3.65013 10.7693 3.63281 10.0045 5.24631L8.63483 8.13566L5.57223 8.59899C3.86895 8.85667 3.3556 10.4942 4.58985 11.7468L6.80597 13.9959L6.28282 17.1716C5.99186 18.9378 7.3291 19.9521 8.85472 19.117L11.594 17.6177L14.3333 19.117Z" fill="#6C5FBC"/>
<mask id="mask0_1_16659" style="mask-type:luminance" maskUnits="userSpaceOnUse" x="3" y="4" width="17" height="16">
<path d="M14.3333 19.117C15.8567 19.9509 17.1965 18.9403 16.9052 17.1716L16.382 13.9959L18.5981 11.7468C19.8306 10.496 19.3214 8.85704 17.6157 8.59899L14.5532 8.13566L13.1903 5.2606C12.4269 3.65013 10.7693 3.63281 10.0045 5.24631L8.63483 8.13566L5.57223 8.59899C3.86895 8.85667 3.3556 10.4942 4.58985 11.7468L6.80597 13.9959L6.28282 17.1716C5.99186 18.9378 7.3291 19.9521 8.85472 19.117L11.594 17.6177L14.3333 19.117Z" fill="white"/>
</mask>
<g mask="url(#mask0_1_16659)">
</g>
</svg>
