<svg width="26" height="26" viewBox="0 0 26 26" fill="none" xmlns="http://www.w3.org/2000/svg">
<circle cx="12.7359" cy="12.7994" r="12.4444" fill="#EB3F5E"/>
<path d="M8.59101 18.1369C8.28887 18.1369 7.98674 18.0256 7.74821 17.787C7.28706 17.3259 7.28706 16.5626 7.74821 16.1014L16.7487 7.10099C17.2098 6.63984 17.9731 6.63984 18.4343 7.10099C18.8954 7.56215 18.8954 8.32543 18.4343 8.78659L9.43381 17.787C9.21118 18.0256 8.89314 18.1369 8.59101 18.1369Z" fill="#F9F9F9"/>
<path d="M17.5915 18.1369C17.2893 18.1369 16.9872 18.0256 16.7487 17.787L7.74821 8.78659C7.28706 8.32543 7.28706 7.56215 7.74821 7.10099C8.20936 6.63984 8.97265 6.63984 9.43381 7.10099L18.4343 16.1014C18.8954 16.5626 18.8954 17.3259 18.4343 17.787C18.1957 18.0256 17.8936 18.1369 17.5915 18.1369Z" fill="#F9F9F9"/>
</svg>
