<svg width="45" height="41" fill="none" xmlns="http://www.w3.org/2000/svg"><rect x=".923" y=".885" width="43.83" height="39.721" rx="8.93" fill="#323142"/><mask id="path-2-inside-1_1_16653" fill="#fff"><path d="M29.8 21.963h-6.34v6.429h-2.53v-6.43h-6.309v-2.291h6.31v-6.459h2.53v6.459h6.34v2.292Z"/></mask><path d="M29.8 21.963h-6.34v6.429h-2.53v-6.43h-6.309v-2.291h6.31v-6.459h2.53v6.459h6.34v2.292Z" fill="#000"/><path d="M29.8 21.963v4.109h4.11v-4.11H29.8Zm-6.34 0v-4.11h-4.108v4.11h4.109Zm0 6.429V32.5h4.11v-4.11h-4.11Zm-2.53 0h-4.108V32.5h4.109v-4.11Zm0-6.43h4.11v-4.108h-4.11v4.109Zm-6.309 0h-4.109v4.11h4.11v-4.11Zm0-2.291v-4.109h-4.109v4.109h4.11Zm6.31 0v4.11h4.109v-4.11h-4.11Zm0-6.459V9.103h-4.11v4.11h4.11Zm2.53 0h4.109V9.103h-4.11v4.11Zm0 6.459h-4.11v4.11h4.11v-4.11Zm6.34 0h4.108v-4.109H29.8v4.109Zm0-1.817h-6.34v8.218h6.34v-8.218Zm-10.45 4.109v6.429h8.219v-6.43h-8.218Zm4.11 2.32h-2.53V32.5h2.53v-8.218Zm1.579 4.109v-6.43h-8.218v6.43h8.218Zm-4.11-10.538h-6.309v8.218h6.31v-8.218Zm-2.2 4.109V19.67h-8.218v2.292h8.218Zm-4.109 1.817h6.31v-8.218h-6.31v8.218Zm10.419-4.109v-6.459h-8.218v6.459h8.218Zm-4.11-2.35h2.53V9.104h-2.53v8.219Zm-1.578-4.109v6.459h8.218v-6.459h-8.218ZM23.46 23.78h6.34v-8.218h-6.34v8.218Zm2.23-4.109v2.292h8.218V19.67h-8.218Z" fill="#fff" mask="url('#path-2-inside-1_1_16653')"/></svg>