<svg width="27" height="31" fill="none" xmlns="http://www.w3.org/2000/svg"><g clip-path="url('#clip0_1_11797')"><path d="M25.53 24.233a16.27 16.27 0 0 1-1.632 2.902c-.858 1.21-1.561 2.047-2.103 2.512-.84.764-1.739 1.155-2.702 1.177-.691 0-1.525-.195-2.496-.59-.973-.392-1.868-.587-2.687-.587-.858 0-1.778.195-2.763.588-.986.394-1.78.6-2.387.62-.924.04-1.845-.363-2.764-1.208-.586-.505-1.32-1.373-2.199-2.601-.942-1.312-1.718-2.833-2.325-4.567-.65-1.874-.976-3.688-.976-5.444 0-2.011.44-3.746 1.32-5.2A7.7 7.7 0 0 1 4.58 9.069a7.5 7.5 0 0 1 3.737-1.043c.734 0 1.696.225 2.892.666 1.192.442 1.957.667 2.293.667.25 0 1.101-.263 2.543-.786 1.363-.485 2.513-.686 3.456-.607 2.554.204 4.473 1.2 5.749 2.993-2.285 1.369-3.414 3.286-3.392 5.744.02 1.916.723 3.51 2.104 4.775a6.922 6.922 0 0 0 2.103 1.364 22.26 22.26 0 0 1-.536 1.391ZM19.672 1.441c0 1.502-.554 2.903-1.66 4.2-1.334 1.543-2.948 2.434-4.698 2.293a4.62 4.62 0 0 1-.035-.568c0-1.441.635-2.984 1.761-4.245.563-.638 1.278-1.17 2.146-1.593.866-.417 1.684-.648 2.454-.687.023.2.032.401.032.6Z" fill="#323142"/></g><defs><clipPath id="clip0_1_11797"><path fill="#fff" transform="translate(.496 .84)" d="M0 0h25.57v30.017H0z"/></clipPath></defs></svg>