<svg width="240" height="91" fill="none" xmlns="http://www.w3.org/2000/svg"><path d="M13.376 32.351c18.953-4.042 42.145-6.092 60.708-.231 4.702 1.484 8.741 3.739 11.742 6.392m0 0c4.571 4.04 6.733 9.007 5.156 13.59-2.466 7.172-10.268 13.842-23.841 14.542-7.075.365-13.532-1.082-15.672-5.221-3.269-6.324 6.703-13.743 15.138-17.139 5.832-2.348 12.327-4.28 19.22-5.773Zm145.883-3.284c-18.63-4.502-41.646-7.117-60.635-1.714-4.809 1.368-9.016 3.521-12.214 6.099m0 0c-4.873 3.925-7.408 8.834-6.179 13.453 1.922 7.224 9.212 14.078 22.72 15.11 7.041.538 13.601-.75 16.052-4.834 3.744-6.238-5.658-13.893-13.828-17.492-5.649-2.489-11.992-4.577-18.765-6.237Zm0 0c-23.8-5.833-50.361-7.147-73.275-1.15M220.81 23.764c3.682 2.5 11.801 8.403 14.822 12.01M235.636 35.776c-5.285 1.267-17.252 4.407-22.839 6.83" stroke="#F9F9F9" stroke-width="2.844" stroke-linecap="round"/></svg>