<svg width="46" height="43" fill="none" xmlns="http://www.w3.org/2000/svg"><rect x="3.674" y="4.979" width="42.267" height="37.337" rx="6.97" fill="#6C5FBC"/><rect x="1.008" y="1.008" width="40.252" height="35.322" rx="5.962" fill="#DBD9EE" stroke="#6C5FBC" stroke-width="2.015"/><path d="M32.624 12.052 9.722 11.95M32.61 16.637l-5.094-.023c-2.106-.01-3.81-2.071-3.803-4.602.008-2.531 1.725-4.578 3.831-4.569l5.094.023M17.361 26.722l-6.654-.074c-.546-.002-1.002-.54-1.013-1.195l-.044-1.728c-.01-.684.45-1.263 1.02-1.26l6.58.073.111 4.184ZM27.813 29.21l-9.405-.115c-.546-.003-1.003-.54-1.013-1.196l-.12-5.375 15.28.187.01.685c.077 3.246-2.062 5.857-4.752 5.815Z" stroke="#6C5FBC" stroke-width="2.084" stroke-linecap="round" stroke-linejoin="round"/></svg>