<svg width="59" height="45" fill="none" xmlns="http://www.w3.org/2000/svg"><path fill-rule="evenodd" clip-rule="evenodd" d="M36.797 44.251c-3.105-6.004-4.658-12.525-4.658-19.564 0-7.142 1.89-13.042 5.667-17.7C41.584 2.329 47.46 0 55.43 0v9.782c-2.795 0-4.84.62-6.133 1.863-1.294 1.242-1.94 3.623-1.94 7.142v1.553H58.69v23.911H36.797Zm-32.139 0C1.553 38.248 0 31.726 0 24.688c0-7.143 1.89-13.043 5.667-17.7C9.445 2.328 15.32 0 23.29 0v9.782c-2.795 0-4.84.621-6.133 1.863-1.294 1.242-1.94 3.623-1.94 7.143v1.552H26.55v23.911H4.658Z" fill="#DADADA"/></svg>