<svg width="123" height="31" fill="none" xmlns="http://www.w3.org/2000/svg"><path d="M32.33 10.701h12.443v2.317h-4.9v13.058h-2.685V13.018h-4.88l.021-2.317Zm11.91 4.244h2.296v2.152h.04c.083-.307.226-.594.431-.881.205-.287.451-.554.759-.78.287-.245.615-.43.984-.573a2.864 2.864 0 0 1 1.086-.226c.287 0 .492.02.595.02.102.021.225.042.328.042v2.357c-.164-.04-.349-.061-.533-.082-.185-.02-.349-.04-.533-.04-.41 0-.8.081-1.169.245-.369.164-.676.41-.963.718a3.887 3.887 0 0 0-.656 1.189c-.164.471-.246 1.025-.246 1.64v5.289h-2.46l.04-11.07Zm17.794 11.131h-2.42v-1.558h-.04c-.308.574-.759 1.005-1.353 1.353a3.571 3.571 0 0 1-1.825.513c-1.455 0-2.521-.349-3.177-1.087-.656-.717-.984-1.824-.984-3.28v-7.072h2.46v6.826c0 .984.184 1.681.574 2.07.369.41.902.616 1.578.616.513 0 .943-.082 1.292-.246.348-.164.635-.37.84-.636.226-.266.37-.594.472-.963.102-.37.143-.78.143-1.21v-6.457h2.46v11.131h-.02Zm4.182-3.567c.082.718.348 1.21.82 1.517.471.287 1.045.43 1.701.43.226 0 .492-.02.78-.06.286-.042.573-.103.82-.206.266-.102.47-.246.635-.45a1.05 1.05 0 0 0 .225-.76c-.02-.307-.123-.573-.348-.778-.226-.205-.492-.349-.82-.492a7.11 7.11 0 0 0-1.148-.308c-.43-.082-.861-.184-1.312-.287a14.174 14.174 0 0 1-1.333-.369c-.43-.143-.8-.328-1.148-.594a2.557 2.557 0 0 1-.8-.943c-.204-.39-.307-.84-.307-1.415 0-.615.144-1.107.451-1.517a3.27 3.27 0 0 1 1.128-.984c.45-.246.963-.43 1.517-.533a8.685 8.685 0 0 1 1.578-.143c.574 0 1.128.061 1.64.184.513.123 1.005.308 1.415.595.43.266.779.635 1.045 1.066.287.43.451.963.533 1.578h-2.562c-.123-.594-.39-.984-.8-1.189-.43-.205-.902-.307-1.455-.307-.164 0-.39.02-.615.04a3.623 3.623 0 0 0-.677.165c-.205.082-.39.205-.533.348a.82.82 0 0 0-.225.595c0 .307.102.533.307.717.205.185.472.328.82.472a7.11 7.11 0 0 0 1.148.307c.43.082.882.185 1.333.287.45.103.881.226 1.312.37.43.143.82.327 1.148.594.328.246.615.553.82.922.205.37.307.84.307 1.374 0 .656-.143 1.21-.45 1.68-.308.452-.698.841-1.17 1.128-.47.287-1.024.492-1.598.636-.595.123-1.169.205-1.743.205a7.342 7.342 0 0 1-1.947-.246 4.96 4.96 0 0 1-1.558-.718 3.441 3.441 0 0 1-1.025-1.21c-.246-.47-.39-1.045-.41-1.721h2.48v.02h.02Zm8.097-7.564h1.866v-3.362h2.46v3.341h2.214v1.825h-2.214v5.945c0 .266.02.471.04.676.021.185.083.349.144.472a.8.8 0 0 0 .349.287c.164.061.369.102.656.102.164 0 .348 0 .512-.02.164-.02.349-.041.513-.082v1.906c-.267.041-.533.062-.8.082-.266.041-.512.041-.8.041-.655 0-1.168-.061-1.557-.184a2.239 2.239 0 0 1-.923-.533 1.906 1.906 0 0 1-.45-.882c-.083-.348-.124-.779-.144-1.23v-6.56h-1.866v-1.865.04Zm8.262 0h2.316v1.517h.041c.349-.656.82-1.107 1.435-1.394a4.648 4.648 0 0 1 2.01-.43c.88 0 1.64.143 2.295.47a4.308 4.308 0 0 1 1.62 1.272c.43.533.758 1.168.963 1.886.205.717.328 1.496.328 2.296a8.42 8.42 0 0 1-.287 2.173c-.205.697-.492 1.332-.881 1.865-.39.533-.882.964-1.497 1.292-.615.328-1.312.492-2.132.492-.348 0-.717-.041-1.066-.103a4.537 4.537 0 0 1-1.025-.307 3.677 3.677 0 0 1-.902-.554 3.124 3.124 0 0 1-.697-.779h-.04v5.556h-2.46V14.945h-.021Zm8.59 5.576c0-.492-.062-.984-.206-1.456a3.713 3.713 0 0 0-.594-1.25 3.28 3.28 0 0 0-.964-.882c-.39-.225-.84-.328-1.332-.328-1.025 0-1.804.349-2.337 1.066-.513.718-.78 1.681-.78 2.87 0 .574.062 1.087.206 1.558.143.472.328.882.615 1.23.266.349.594.615.984.82.39.205.82.308 1.332.308.574 0 1.025-.123 1.415-.349.39-.225.697-.533.963-.881.246-.37.43-.78.533-1.25a7.04 7.04 0 0 0 .164-1.456Zm4.325-9.82h2.46v2.317h-2.46V10.7Zm0 4.244h2.46v11.131h-2.46V14.945Zm4.653-4.244h2.46v15.375h-2.46V10.701Zm9.963 15.683c-.881 0-1.681-.144-2.378-.451a5.398 5.398 0 0 1-1.763-1.21 5.272 5.272 0 0 1-1.086-1.865 7.288 7.288 0 0 1-.39-2.358c0-.84.123-1.62.39-2.337a5.46 5.46 0 0 1 1.086-1.865 4.921 4.921 0 0 1 1.763-1.21 6.224 6.224 0 0 1 2.378-.45c.882 0 1.681.143 2.378.45a5.102 5.102 0 0 1 1.763 1.21 5.26 5.26 0 0 1 1.087 1.865c.246.718.389 1.497.389 2.337 0 .861-.123 1.64-.389 2.358-.267.717-.615 1.332-1.087 1.865a4.912 4.912 0 0 1-1.763 1.21 6.147 6.147 0 0 1-2.378.45Zm0-1.948c.533 0 1.025-.123 1.415-.348.41-.226.717-.533.984-.902.266-.37.451-.8.574-1.25a5.622 5.622 0 0 0 0-2.85 3.685 3.685 0 0 0-.574-1.25 3.125 3.125 0 0 0-.984-.882 2.894 2.894 0 0 0-1.415-.349c-.533 0-1.025.123-1.414.349-.41.225-.718.533-.984.881a3.666 3.666 0 0 0-.574 1.25 5.584 5.584 0 0 0 0 2.85c.123.472.307.882.574 1.25.266.37.594.677.984.903.41.246.881.348 1.414.348Zm6.355-9.491h1.866v-3.362h2.46v3.341h2.214v1.825h-2.214v5.945c0 .266.02.471.041.676.02.185.082.349.143.472a.8.8 0 0 0 .349.287c.164.061.369.102.656.102.164 0 .348 0 .512-.02.164-.02.349-.041.513-.082v1.906c-.267.041-.533.062-.8.082-.266.041-.512.041-.799.041-.656 0-1.169-.061-1.558-.184a2.24 2.24 0 0 1-.923-.533 1.91 1.91 0 0 1-.451-.882c-.082-.348-.123-.779-.143-1.23v-6.56h-1.866v-1.865.04Z" fill="#000"/><path d="M29.459 10.701H18.203L14.739 0l-3.485 10.701L0 10.681l9.102 6.621-3.485 10.701 9.102-6.622 9.102 6.622-3.465-10.701 9.102-6.601Z" fill="#00B67A"/><path d="m21.136 19.72-.779-2.418-5.617 4.08 6.396-1.661Z" fill="#005128"/></svg>