<svg width="235" height="22" fill="none" xmlns="http://www.w3.org/2000/svg"><path fill-rule="evenodd" clip-rule="evenodd" d="M159.953 10.67h-2.981v10.668h-4.446V10.67h-2.091V6.903h2.091V4.446c0-1.726.837-4.445 4.446-4.445h3.294v3.66h-2.353c-.366 0-.941.21-.941 1.047v2.196h3.347l-.366 3.765ZM10.772 0c1.42.05 2.89.05 4.31.101 1.267.051 2.433.254 3.548.913 1.42.862 2.281 2.13 2.585 3.751.152.964.203 1.977.254 2.94.05 2.13 0 4.259 0 6.388 0 1.116-.05 2.23-.406 3.295-.71 2.079-2.18 3.346-4.309 3.752-.963.203-1.977.203-2.94.253-2.13.051-4.208 0-6.337 0-1.115 0-2.23-.05-3.295-.405-2.079-.71-3.346-2.18-3.752-4.31-.202-.963-.202-1.977-.253-2.94-.05-2.129 0-4.258 0-6.387 0-1.116.05-2.23.405-3.295.71-2.079 2.18-3.346 4.31-3.752.963-.203 1.977-.203 2.94-.253C8.795 0 9.758 0 10.772 0Zm8.77 10.494c-.05 0 0 0 0 0-.05-.862-.05-1.673-.05-2.535 0-.811-.05-1.622-.152-2.433-.203-1.825-1.268-3.042-3.042-3.397-.912-.203-1.926-.203-2.839-.203-1.825-.05-3.6-.05-5.424 0-.913 0-1.825.051-2.687.203-1.521.254-2.586 1.116-3.042 2.636-.152.507-.203 1.014-.253 1.521-.051 1.927-.051 3.853-.051 5.78 0 1.216.05 2.483.152 3.7.152 1.825 1.267 3.093 3.093 3.397.912.152 1.875.203 2.838.203 1.775.05 3.55 0 5.374 0 .811 0 1.622-.051 2.434-.153.76-.05 1.47-.304 2.078-.81 1.014-.812 1.369-1.876 1.42-3.093.1-1.52.1-3.143.152-4.816Z" fill="#081420"/><path fill-rule="evenodd" clip-rule="evenodd" d="M16.247 10.696a5.452 5.452 0 0 1-5.475 5.475c-3.042 0-5.475-2.433-5.475-5.525 0-2.991 2.484-5.425 5.526-5.425 2.99 0 5.424 2.434 5.424 5.475Zm-5.475 3.549c1.926 0 3.548-1.622 3.548-3.549 0-1.926-1.622-3.548-3.548-3.548-1.977 0-3.549 1.622-3.549 3.548-.05 1.927 1.572 3.549 3.549 3.549Z" fill="#081420"/><path d="M17.718 4.968c0 .71-.557 1.318-1.267 1.318-.71 0-1.318-.609-1.267-1.318 0-.71.557-1.268 1.267-1.268.71 0 1.267.558 1.267 1.268Z" fill="#081420"/><path fill-rule="evenodd" clip-rule="evenodd" d="M96.632 12.481v7.88h-4.6v-7.362c0-1.84-.633-3.106-2.301-3.106-1.265 0-2.013.863-2.358 1.668-.115.287-.172.69-.172 1.093v7.706H82.6s.057-12.48 0-13.745h4.6V8.57s0 .058-.057.058h.058V8.57c.632-.92 1.667-2.3 4.14-2.3 2.991 0 5.291 2.013 5.291 6.211ZM77.883.001c-1.553 0-2.588 1.035-2.588 2.358 0 1.323.978 2.358 2.53 2.358h.058c1.61 0 2.588-1.035 2.588-2.358-.058-1.323-1.035-2.358-2.588-2.358Zm-2.357 20.36h4.543V6.614h-4.543V20.36Z" fill="#081420"/><path fill-rule="evenodd" clip-rule="evenodd" d="M234.615 3.826c-.803.351-1.606.602-2.51.703.904-.552 1.607-1.406 1.908-2.41a9.241 9.241 0 0 1-2.761 1.054 4.438 4.438 0 0 0-3.213-1.405 4.371 4.371 0 0 0-4.368 4.367c0 .352.05.703.1 1.004-3.665-.2-6.878-1.907-9.037-4.568a4.176 4.176 0 0 0-.602 2.209 4.39 4.39 0 0 0 1.958 3.665c-.703 0-1.406-.201-2.008-.552v.05c0 2.108 1.506 3.916 3.514 4.317-.351.1-.753.15-1.155.15-.301 0-.552-.05-.803-.1.552 1.758 2.159 3.013 4.117 3.063-1.506 1.155-3.364 1.858-5.422 1.858-.352 0-.703 0-1.055-.05 1.958 1.255 4.218 1.957 6.728 1.957 8.083 0 12.451-6.677 12.451-12.45v-.553a9.392 9.392 0 0 0 2.158-2.309Z" fill="#6C5FBC"/></svg>