<svg width="138" height="23" fill="none" xmlns="http://www.w3.org/2000/svg"><path fill-rule="evenodd" clip-rule="evenodd" d="m11.95.295 3.283 6.974 7.336 1.119c.19.03.347.169.406.36.06.19.01.4-.127.54l-5.308 5.428 1.253 7.666a.538.538 0 0 1-.2.516.485.485 0 0 1-.53.04L11.5 19.32l-6.562 3.62a.485.485 0 0 1-.531-.04.537.537 0 0 1-.2-.517l1.253-7.667L.152 9.29a.545.545 0 0 1-.127-.541c.059-.191.216-.33.406-.36l7.336-1.119L11.051.295A.499.499 0 0 1 11.5 0c.191 0 .366.115.45.295ZM40.7.295l3.283 6.974 7.336 1.119c.19.03.347.169.406.36.06.19.01.4-.127.54l-5.308 5.428 1.253 7.666a.538.538 0 0 1-.2.516.485.485 0 0 1-.53.04L40.25 19.32l-6.562 3.62a.485.485 0 0 1-.531-.04.537.537 0 0 1-.2-.517l1.253-7.667-5.309-5.427a.545.545 0 0 1-.127-.541c.059-.191.216-.33.406-.36l7.336-1.119L39.801.295A.499.499 0 0 1 40.25 0c.191 0 .366.115.45.295ZM69.45.295l3.283 6.974 7.336 1.119c.19.03.347.169.406.36.06.19.01.4-.127.54l-5.308 5.428 1.253 7.666a.538.538 0 0 1-.2.516.485.485 0 0 1-.53.04L69 19.32l-6.562 3.62a.485.485 0 0 1-.531-.04.537.537 0 0 1-.2-.517l1.253-7.667-5.309-5.427a.545.545 0 0 1-.127-.541c.059-.191.216-.33.406-.36l7.336-1.119L68.551.295A.499.499 0 0 1 69 0c.191 0 .366.115.45.295ZM98.2.295l3.283 6.974 7.336 1.119c.19.03.347.169.406.36.06.19.01.4-.127.54l-5.308 5.428 1.253 7.666a.538.538 0 0 1-.199.516.485.485 0 0 1-.531.04l-6.562-3.618-6.562 3.62a.485.485 0 0 1-.531-.04.537.537 0 0 1-.2-.517l1.253-7.667-5.309-5.427a.545.545 0 0 1-.127-.541c.059-.191.216-.33.406-.36l7.336-1.119L97.301.295A.499.499 0 0 1 97.75 0c.191 0 .366.115.45.295ZM126.951.295l3.282 6.974 7.336 1.119c.19.03.347.169.406.36.06.19.01.4-.127.54l-5.308 5.428 1.253 7.666a.538.538 0 0 1-.199.516.485.485 0 0 1-.531.04l-6.562-3.618-6.562 3.62a.485.485 0 0 1-.531-.04.536.536 0 0 1-.2-.517l1.253-7.667-5.309-5.427a.544.544 0 0 1-.127-.541.511.511 0 0 1 .406-.36l7.336-1.119 3.284-6.974a.498.498 0 0 1 .45-.295.5.5 0 0 1 .45.295Z" fill="#F59E0B"/></svg>