<svg width="96" height="16" fill="none" xmlns="http://www.w3.org/2000/svg"><g opacity=".8" fill="#F59E0B"><path d="M6.958.742c.321-.99 1.72-.99 2.041 0l1.148 3.532c.144.442.556.742 1.02.742h3.715c1.04 0 1.472 1.33.631 1.941L12.508 9.14a1.073 1.073 0 0 0-.39 1.2l1.148 3.533c.321.989-.81 1.81-1.651 1.2L8.61 12.889a1.073 1.073 0 0 0-1.262 0l-3.005 2.184c-.841.61-1.973-.211-1.651-1.2l1.147-3.533a1.073 1.073 0 0 0-.39-1.2L.444 6.957c-.84-.61-.408-1.941.631-1.941H4.79c.465 0 .877-.3 1.02-.742L6.958.742ZM26.915.742c.321-.99 1.72-.99 2.041 0l1.148 3.532c.144.442.556.742 1.021.742h3.714c1.04 0 1.472 1.33.631 1.941L32.465 9.14a1.073 1.073 0 0 0-.39 1.2l1.148 3.533c.321.989-.81 1.81-1.651 1.2l-3.005-2.184a1.073 1.073 0 0 0-1.262 0L24.3 15.073c-.841.61-1.973-.211-1.652-1.2l1.148-3.533a1.073 1.073 0 0 0-.39-1.2l-3.005-2.183c-.84-.61-.408-1.941.631-1.941h3.715c.465 0 .877-.3 1.02-.742L26.915.742ZM46.872.742c.322-.99 1.72-.99 2.041 0l1.148 3.532c.144.442.556.742 1.021.742h3.715c1.04 0 1.471 1.33.63 1.941L52.422 9.14a1.073 1.073 0 0 0-.39 1.2l1.148 3.533c.321.989-.81 1.81-1.651 1.2l-3.005-2.184a1.073 1.073 0 0 0-1.262 0l-3.005 2.184c-.841.61-1.973-.211-1.651-1.2l1.147-3.533a1.073 1.073 0 0 0-.39-1.2l-3.005-2.183c-.84-.61-.408-1.941.631-1.941h3.715c.465 0 .877-.3 1.02-.742L46.872.742ZM66.831.742c.322-.99 1.72-.99 2.041 0l1.148 3.532c.144.442.556.742 1.021.742h3.714c1.04 0 1.472 1.33.631 1.941L72.381 9.14a1.073 1.073 0 0 0-.39 1.2l1.148 3.533c.321.989-.81 1.81-1.651 1.2l-3.005-2.184a1.073 1.073 0 0 0-1.262 0l-3.005 2.184c-.841.61-1.973-.211-1.651-1.2l1.147-3.533a1.073 1.073 0 0 0-.39-1.2l-3.005-2.183c-.84-.61-.408-1.941.631-1.941h3.715c.465 0 .877-.3 1.02-.742L66.831.742ZM86.788.742c.322-.99 1.72-.99 2.041 0l1.148 3.532c.144.442.556.742 1.021.742h3.715c1.04 0 1.471 1.33.63 1.941L92.338 9.14a1.073 1.073 0 0 0-.39 1.2l1.148 3.533c.321.989-.81 1.81-1.651 1.2l-3.005-2.184a1.073 1.073 0 0 0-1.262 0l-3.005 2.184c-.841.61-1.973-.211-1.651-1.2l1.147-3.533a1.073 1.073 0 0 0-.39-1.2l-3.004-2.183c-.842-.61-.41-1.941.63-1.941h3.715c.465 0 .877-.3 1.02-.742L86.788.742Z"/></g></svg>