<svg width="209" height="100" fill="none" xmlns="http://www.w3.org/2000/svg"><path d="M1.074 83.671c11.07 0 12.142 14.414 23.926 14.414 11.784 0 8.927-40.964 19.997-40.964s5-34.515 20.355-34.515 8.213 34.515 22.14 34.515c13.926 0 11.784-40.291 20.711-40.291 8.928 0 6.428 23.982 17.141 23.982 10.713 0 5.714-39.556 17.141-39.556 11.427 0 10.355 17.267 20.711 17.267 10.356 0 11.427 20.013 25.711 20.013 14.284 0 5.357 22.307 18.926 22.307" stroke="#6C5FBC" stroke-width="1.988" stroke-linecap="round" stroke-linejoin="round"/></svg>