<svg width="26" height="26" fill="none" xmlns="http://www.w3.org/2000/svg"><path d="m13.352 2.775-.031.073-3.037 7.047H7.3c-.712 0-1.392.146-2.01.408l1.832-4.376.042-.105.074-.168c.02-.062.041-.125.073-.178 1.372-3.172 2.921-3.895 6.041-2.701Z" stroke="#936DFF" stroke-width="1.571" stroke-linecap="round" stroke-linejoin="round"/><path d="M18.996 10.104a4.985 4.985 0 0 0-1.477-.21h-7.235l3.037-7.046.031-.073c.157.052.304.126.46.188l2.315.974c1.288.534 2.188 1.09 2.733 1.76.104.125.188.24.261.376.095.147.168.293.21.45.042.095.073.189.094.273.283.88.115 1.958-.43 3.308Z" stroke="#936DFF" stroke-width="1.571" stroke-linecap="round" stroke-linejoin="round"/><path d="M22.63 15.005v2.042c0 .21-.01.419-.02.628-.2 3.654-2.241 5.497-6.116 5.497H8.327a5.78 5.78 0 0 1-.743-.052c-3.33-.22-5.11-2-5.33-5.33a5.778 5.778 0 0 1-.052-.743v-2.042a5.124 5.124 0 0 1 3.1-4.701 5.185 5.185 0 0 1 2.01-.408h10.22a5.24 5.24 0 0 1 1.475.209 5.134 5.134 0 0 1 3.623 4.9Z" stroke="#936DFF" stroke-width="1.571" stroke-linecap="round" stroke-linejoin="round"/><path d="M7.122 5.927 5.29 10.304a5.124 5.124 0 0 0-3.1 4.7v-3.067a6.124 6.124 0 0 1 4.932-6.01ZM22.628 11.936v3.068a5.108 5.108 0 0 0-3.623-4.89c.544-1.361.701-2.43.44-3.32a1.193 1.193 0 0 0-.095-.272 6.097 6.097 0 0 1 3.278 5.414Z" stroke="#936DFF" stroke-width="1.571" stroke-linecap="round" stroke-linejoin="round"/></svg>