<svg width="240" height="91" viewBox="0 0 240 91" fill="none" xmlns="http://www.w3.org/2000/svg">
<path d="M13.3759 32.3512C32.3287 28.3088 55.5212 26.2585 74.0842 32.1198C78.7859 33.6044 82.8254 35.8585 85.8265 38.5115M85.8265 38.5115C90.3973 42.5524 92.559 47.519 90.9823 52.1027C88.5156 59.2739 80.714 65.9435 67.141 66.6442C60.0662 67.0093 53.6093 65.5623 51.4695 61.4228C48.2005 55.0986 58.1718 47.6801 66.6066 44.2841C72.4385 41.9361 78.934 40.0045 85.8265 38.5115ZM231.709 35.228C213.079 30.7264 190.063 28.1114 171.074 33.5139C166.265 34.8823 162.058 37.0355 158.86 39.6129M158.86 39.6129C153.987 43.5383 151.452 48.4475 152.681 53.0655C154.603 60.2904 161.893 67.1444 175.401 68.1759C182.442 68.7136 189.002 67.4256 191.453 63.3423C195.197 57.1038 185.795 49.4485 177.625 45.8496C171.976 43.3613 165.633 41.2728 158.86 39.6129ZM158.86 39.6129C135.06 33.7803 108.499 32.4663 85.5855 38.4632" stroke="#F9F9F9" stroke-width="2.84444" stroke-linecap="round"/>
<path d="M220.81 23.7639C224.492 26.2644 232.611 32.167 235.632 35.7732" stroke="#F9F9F9" stroke-width="2.84444" stroke-linecap="round"/>
<path d="M235.636 35.7756C230.351 37.043 218.384 40.1834 212.797 42.6058" stroke="#F9F9F9" stroke-width="2.84444" stroke-linecap="round"/>
</svg>
